# xmcd
#
# Track frame offsets:
#	150
#	13287
#	28062
#	42857
#	57562
#	75562
#	90662
#	103090
#	116540
#	130800
#	144990
#	159237
#
# Disc length: 2314 seconds
#
# Revision: 0
# Processed by: cddbd v1.4PL0 Copyright (c) Steve Scherf et al.
# Submitted via: dBpowerAMP V4.0
#
DISCID=9809080c
DTITLE=Don Curtis - Men Of Lakota
DYEAR=1996
DGENRE=Country
TTITLE0=Sitting all alone by the fire
TTITLE1=I know there´s a place
TTITLE2=Men of Lakota
TTITLE3=Cry a little in my heart
TTITLE4=Ordinary day
TTITLE5=You
TTITLE6=Reservation
TTITLE7=Juliet
TTITLE8=I don´t want,I don´t want
TTITLE9=You put it on
TTITLE10=Wild, wild
TTITLE11=Kiowa
EXTD=
EXTT0=
EXTT1=
EXTT2=
EXTT3=
EXTT4=
EXTT5=
EXTT6=
EXTT7=
EXTT8=
EXTT9=
EXTT10=
EXTT11=
PLAYORDER=
